ply
format ascii 1.0
element vertex 29
property float x
property float y
property float z
property uchar red
property uchar green
property uchar blue
end_header
0.578125 47.812500 -1901.981567 255 0 0
1.156250 41.062500 -1896.280518 255 0 0
1.156250 35.437500 -1889.767944 255 0 0
1.734375 28.687500 -1884.638428 255 0 0
-29.484375 45.562500 -1915.508911 255 0 0
-11.562500 45.000000 -1909.926758 255 0 0
11.562500 45.562500 -1908.337402 255 0 0
27.171875 45.562500 -1914.100342 255 0 0
-15.031250 1.125000 -1906.482544 255 0 0
0.578125 6.750000 -1893.742676 255 0 0
16.187500 1.687500 -1907.215576 255 0 0
0.578125 0.000000 -1897.414307 255 0 0
-0.578125 -29.250000 -1907.692993 255 0 0
-21.968750 -24.187500 -1917.669312 255 0 0
-37.000000 -9.562500 -1920.859741 255 0 0
-40.468750 12.375000 -1925.857788 255 0 0
-42.203125 35.437500 -1928.811279 255 0 0
20.812500 -23.625000 -1915.582153 255 0 0
35.843750 -9.000000 -1927.554565 255 0 0
40.468750 12.937500 -1928.173340 255 0 0
41.625000 36.562500 -1929.835571 255 0 0
-11.562500 -28.125000 -1910.689453 255 0 0
-31.796875 -18.000000 -1919.302002 255 0 0
-39.312500 1.125000 -1924.196289 255 0 0
-41.625000 23.625000 -1927.095581 255 0 0
10.406250 -28.125000 -1908.549194 255 0 0
30.062500 -17.437500 -1920.833374 255 0 0
39.312500 1.687500 -1928.210693 255 0 0
42.203125 25.312500 -1929.124756 255 0 0
