ply
format ascii 1.0
element vertex 29
property float x
property float y
property float z
property uchar red
property uchar green
property uchar blue
end_header
0.000000 47.812500 -1901.394043 255 0 0
-0.578125 39.375000 -1895.953491 255 0 0
-0.578125 31.500000 -1888.723999 255 0 0
-0.578125 23.062500 -1884.079224 255 0 0
-30.062500 45.562500 -1914.131104 255 0 0
-10.984375 45.000000 -1909.389526 255 0 0
10.984375 45.000000 -1908.141113 255 0 0
28.328125 45.562500 -1914.733154 255 0 0
-17.921875 0.000000 -1905.729492 255 0 0
-0.578125 3.937500 -1893.149170 255 0 0
15.609375 0.000000 -1906.641724 255 0 0
-0.578125 -2.812500 -1897.255615 255 0 0
-0.578125 -30.375000 -1906.805298 255 0 0
-24.859375 -24.750000 -1916.921021 255 0 0
-42.781250 -8.437500 -1921.216309 255 0 0
-47.406250 17.437500 -1927.002563 255 0 0
-46.828125 45.000000 -1929.817505 255 0 0
22.546875 -23.625000 -1914.958374 255 0 0
38.734375 -6.750000 -1927.543945 255 0 0
44.515625 18.000000 -1928.939453 255 0 0
43.937500 45.562500 -1929.289429 255 0 0
-12.718750 -29.812500 -1909.641357 255 0 0
-35.843750 -18.000000 -1919.312866 255 0 0
-45.671875 3.375000 -1923.897705 255 0 0
-47.406250 30.937500 -1926.594604 255 0 0
11.562500 -28.687500 -1908.011597 255 0 0
32.375000 -16.312500 -1920.076538 255 0 0
42.781250 5.062500 -1929.675659 255 0 0
45.671875 31.500000 -1929.474854 255 0 0
